<svg width="24" viewBox="0 0 248 24" height="24" xmlns="http://www.w3.org/2000/svg"><path d="M188.134-20.903c.098 1.422.098 2.844.098 4.279 0 43.725-33.287 94.154-94.154 94.154v-.026a93.68 93.68 0 0 1-50.724-14.835c2.614.314 5.242.472 7.876.478a66.448 66.448 0 0 0 41.098-14.193 33.133 33.133 0 0 1-30.915-22.98 32.985 32.985 0 0 0 14.94-.57C60.915 22.285 49.808 8.721 49.808-7.03v-.42a32.881 32.881 0 0 0 15.019 4.142c-14.54-9.718-19.023-29.061-10.242-44.185a93.92 93.92 0 0 0 68.2 34.572 33.112 33.112 0 0 1 9.573-31.616c13.328-12.529 34.29-11.887 46.818 1.435a66.402 66.402 0 0 0 21.014-8.034 33.215 33.215 0 0 1-14.546 18.302 65.81 65.81 0 0 0 19.002-5.21 67.226 67.226 0 0 1-16.512 17.142z"/></svg>