<?xml version="1.0" encoding="UTF-8"?>
<svg width="194px" height="70px" viewBox="0 0 149 53" version="1.1" xmlns="http://www.w3.org/2000/svg" xmlns:xlink="http://www.w3.org/1999/xlink">
    <!-- Generator: Sketch 55.2 (78181) - https://sketchapp.com -->
    <title>Artboard Copy</title>
    <desc>Created with Sketch.</desc>
    <g id="Artboard-Copy" stroke="none" stroke-width="1" fill="none" fill-rule="evenodd">
        <g id="Group" fill="#000" fill-rule="nonzero">
            <path d="M95.8938,24.5612 C97.3254,24.5612 98.7249,24.1319 99.9153,23.3278 C101.106,22.5236 102.033,21.3806 102.581,20.0433 C103.129,18.7061 103.272,17.2346 102.993,15.8149 C102.714,14.3953 102.024,13.0912 101.012,12.0677 C99.9998,11.0442 98.7101,10.34721 97.3059,10.06482 C95.9018,9.78243 94.4464,9.92737 93.1237,10.48128 C91.8011,11.0352 90.6706,11.9732 89.8752,13.1767 C89.0798,14.3803 88.6553,15.7952 88.6553,17.2427 C88.6553,19.1837 89.4179,21.0451 90.7754,22.4176 C92.1329,23.7901 93.974,24.5612 95.8938,24.5612 Z M95.8938,12.2071 C96.8788,12.2071 97.8418,12.5025 98.6608,13.0558 C99.4798,13.6091 100.118,14.3955 100.495,15.3157 C100.872,16.2358 100.971,17.2483 100.779,18.2251 C100.586,19.2019 100.112,20.0991 99.4155,20.8034 C98.719,21.5076 97.8315,21.9872 96.8654,22.1815 C95.8993,22.3758 94.8979,22.2761 93.9878,21.8949 C93.0777,21.5138 92.2999,20.8684 91.7526,20.0403 C91.2054,19.2122 90.9133,18.2386 90.9133,17.2427 C90.9133,16.5814 91.0421,15.9266 91.2924,15.3157 C91.5427,14.7047 91.9095,14.1496 92.372,13.682 C93.306,12.7377 94.5729,12.2071 95.8938,12.2071 Z" id="Shape"></path>
            <path d="M139.238,17.909 L139.238,17.6577 L139.238,3.1737 C139.242,3.02368 139.215,2.87449 139.159,2.73542 C139.104,2.59635 139.02,2.47039 138.914,2.36539 C138.809,2.2568 138.683,2.17157 138.543,2.11514 C138.404,2.05872 138.254,2.03234 138.104,2.0377 C137.957,2.03536 137.812,2.06321 137.676,2.11955 C137.541,2.17589 137.418,2.25953 137.315,2.36539 C137.209,2.47039 137.126,2.59635 137.07,2.73542 C137.014,2.87449 136.987,3.02368 136.991,3.1737 L136.991,10.27372 C136.993,10.55759 136.901,10.83405 136.732,11.0602 C136.656,11.1656 136.542,11.237 136.415,11.2594 C136.288,11.2818 136.158,11.2535 136.051,11.1803 C134.736,10.28164 133.166,9.84481 131.581,9.9371 C129.996,10.02938 128.486,10.64567 127.282,11.6911 C126.078,12.7365 125.247,14.1531 124.917,15.7228 C124.587,17.2924 124.777,18.9282 125.456,20.3783 C126.136,21.8283 127.269,23.0122 128.679,23.7478 C130.09,24.4834 131.701,24.7298 133.263,24.4492 C134.826,24.1685 136.254,23.3763 137.328,22.1946 C138.402,21.0128 139.061,19.507 139.206,17.909 L139.238,17.909 Z M132.032,22.2782129 C131.047,22.2782129 130.084,21.9829 129.265,21.4296 C128.446,20.8763 127.808,20.0898 127.431,19.1697 C127.054,18.2496 126.955,17.2371 127.147,16.2603 C127.339,15.2835 127.814,14.3862 128.51,13.682 C129.207,12.9778 130.094,12.4982 131.06,12.3039 C132.027,12.1096 133.028,12.2093 133.938,12.5904 C134.848,12.9715 135.626,13.617 136.173,14.4451 C136.721,15.2732 137.013006,16.2467 137.013006,17.2427 C137.014,17.9043 136.886,18.5598 136.636,19.1714 C136.387,19.783 136.02,20.3387 135.557,20.8065 C135.094,21.2744 134.545,21.6453 133.94,21.8978 C133.335,22.1504 132.687,22.2797 132.032,22.2782129 Z" id="Shape"></path>
            <path d="M121.499,17.2427 L121.499,11.0821 C121.501,10.93125 121.472,10.78157 121.415,10.64246 C121.357,10.50334 121.272,10.3778 121.164,10.27375 C121.061,10.16789 120.938,10.08425 120.803,10.02791 C120.667,9.97158 120.522,9.94373 120.375,9.94592499 C120.088,9.94592499 119.814,10.06114 119.611,10.26599 C119.408,10.47084 119.295,10.74867 119.295,11.0384 L119.295,17.199 C119.295,18.5345 118.77,19.8153 117.836,20.7597 C116.902,21.704 115.635,22.2346 114.314,22.2346 C112.993,22.2346 111.726,21.704 110.792,20.7597 C109.858,19.8153 109.334,18.5345 109.334,17.199 L109.334,11.0821 C109.334,10.78077 109.215,10.49183 109.005,10.27879 C108.794,10.06574 108.508,9.94592499 108.21,9.94592499 C107.912,9.94592499 107.626,10.06574 107.416,10.27879 C107.205,10.49183 107.086,10.78077 107.086,11.0821 L107.086,17.2427 C107.086,18.2038 107.274,19.1554 107.637,20.0434 C108.001,20.9313 108.534,21.7381 109.207,22.4176 C109.879,23.0972 110.677,23.6363 111.555,24.0041 C112.433,24.3719 113.374,24.5612 114.325,24.5612 C115.275,24.5612 116.217,24.3719 117.095,24.0041 C117.973,23.6363 118.771,23.0972 119.443,22.4176 C120.115,21.7381 120.649,20.9313 121.012,20.0434 C121.376,19.1554 121.563,18.2038 121.563,17.2427 L121.499,17.2427 Z" id="Path"></path>
            <path d="M71.7042,24.5613283 C72.906,24.5684 74.0905,24.2725 75.1506,23.7003 C76.2108,23.1281 77.1131,22.2977 77.7759,21.2842 C77.8575,21.1594 77.914,21.0196 77.9421,20.8728 C77.9702,20.7259 77.9695,20.5749 77.9399,20.4283 C77.9103,20.2817 77.8524,20.1425 77.7696,20.0185 C77.6868,19.8946 77.5807,19.7883 77.4572,19.7058 C77.3338,19.6234 77.1955,19.5663 77.0502,19.5378 C76.905,19.5094 76.7556,19.5101 76.6106,19.5401 C76.4657,19.57 76.328,19.6285 76.2054,19.7122 C76.0828,19.796 75.9777,19.9033 75.8961,20.0281 C75.41,20.7535 74.744,21.3371 73.9647,21.7205 C73.1855,22.1039 72.3203,22.2736 71.4558,22.2127 C70.1608,22.1275 68.9499,21.5348 68.0808,20.5605 C67.2116,19.5863 66.7528,18.3076 66.8021,16.9965 C66.8514,15.6855 67.4048,14.4456 68.3446,13.5409 C69.2844,12.6362 70.5363,12.1381 71.8339,12.1525 C72.6567,12.1612 73.4646,12.3763 74.1849,12.7786 C74.9053,13.1809 75.5155,13.7577 75.9609,14.4573 C76.1214,14.7122 76.3754,14.8923 76.6672,14.9578 C76.9589,15.0234 77.2645,14.9691 77.5166,14.8068 C77.7688,14.6446 77.9469,14.3877 78.0117,14.0928 C78.0765,13.7978 78.0228,13.4888 77.8624,13.2339 C77.1852,12.1677 76.2458,11.2975 75.1361,10.70853 C74.0264,10.11956 72.7845,9.83197 71.532,9.87392 C70.2794,9.91586 69.059,10.2859 67.9903,10.94782 C66.9216,11.6097 66.0413,12.5409 65.4353,13.65 C64.8294,14.7592 64.5187,16.0085 64.5336,17.2755 C64.5485,18.5425 64.8886,19.7839 65.5204,20.8782 C66.1523,21.9725 67.0544,22.8822 68.1383,23.5182 C69.2223,24.1542 70.451,24.4948 71.7042,24.5066 L71.7042,24.5613283 Z" id="Path"></path>
            <path d="M83.1885,24.5613319 C83.3351,24.5635 83.4806,24.5357 83.6162,24.4793 C83.7518,24.423 83.8746,24.3394 83.9772,24.2335 C84.0833,24.1285 84.1668,24.0025 84.2225,23.8635 C84.2783,23.7244 84.3051,23.5752 84.3013,23.4252 L84.3013,3.40313 C84.3088,3.11589 84.204,2.83725 84.0096,2.62759 C83.9072,2.50968 83.7808,2.41548 83.6391,2.35139 C83.4974,2.2873 83.3438,2.25484 83.1885,2.25601146 C83.0315,2.25325 82.8757,2.28495 82.7321,2.34909 C82.5884,2.41323 82.4603,2.50827 82.3567,2.62759 C82.178,2.84399 82.0889,3.12188 82.1082,3.40313 L82.1082,23.4252 C82.1044,23.5752 82.1312,23.7244 82.187,23.8635 C82.2427,24.0025 82.3262,24.1285 82.4323,24.2335 C82.6372,24.4311 82.9057,24.5474 83.1885,24.5613319 Z" id="Path"></path>
            <path d="M106.395,37.3631 C104.963,37.3631 103.564,37.7923 102.373,38.5965 C101.183,39.4006 100.255,40.5436 99.7075,41.8809 C99.1596,43.2182 99.0163,44.6897 99.2956,46.1093 C99.5749,47.529 100.264,48.833 101.277,49.8565 C102.289,50.88 103.579,51.577 104.983,51.8594 C106.387,52.1418 107.842,51.9969 109.165,51.4429 C110.488,50.889 111.618,49.951 112.414,48.7475 C113.209,47.544 113.633,46.129 113.633,44.6816 C113.633,43.7205 113.446,42.7688 113.082,41.8809 C112.719,40.993 112.186,40.1862 111.513,39.5066 C110.841,38.827 110.043,38.2879 109.165,37.9202 C108.287,37.5524 107.346,37.3631 106.395,37.3631 Z M106.395,49.7171113 C105.409,49.7171113 104.446,49.4215 103.627,48.8677 C102.808,48.3139 102.169,47.5268 101.793,46.606 C101.416,45.6853 101.318,44.6722 101.511,43.6951 C101.704,42.718 102.179,41.8208 102.877,41.117 C103.575,40.4132 104.463,39.9345 105.43,39.7414 C106.397,39.5484 107.399,39.6496 108.308,40.0324 C109.218,40.4153 109.995,41.0624 110.541,41.8919 C111.087,42.7214 111.378,43.6961 111.375023,44.6925 C111.375023,45.3532 111.247,46.0075 110.996,46.6178 C110.746,47.2282 110.379,47.7826 109.916,48.2493 C109.453,48.716 108.904,49.0859 108.3,49.3378 C107.696,49.5896 107.049,49.7185 106.395,49.7171113 Z" id="Shape"></path>
            <path d="M89.2927,37.363 C87.8485,37.3638 86.4376,37.8012 85.2413,38.6192 C85.1346,38.6923 85.0039,38.7207 84.8769,38.6983 C84.7499,38.6759 84.6365,38.6044 84.5606,38.499 C84.3909,38.2729 84.2998,37.9965 84.3014,37.7126 L84.3014,30.5689 C84.3052,30.4189 84.2783,30.2697 84.2226,30.1306 C84.1668,29.9915 84.0833,29.8656 83.9773,29.7606 C83.8775,29.6488 83.7559,29.559 83.6202,29.497 C83.4845,29.435 83.3375,29.402 83.1886,29.4001 C83.0384,29.3947 82.8888,29.4211 82.7493,29.4775 C82.6097,29.534 82.4834,29.6192 82.3783,29.7278 C82.2723,29.8328 82.1887,29.9587 82.133,30.0978 C82.0772,30.2369 82.0504,30.3861 82.0542,30.5361 L82.0542,45.3478 C82.1799,46.763 82.7097,48.1108 83.5792,49.2271 C84.4487,50.3434 85.6204,51.1801 86.9516,51.6354 C88.2829,52.0907 89.7164,52.1449 91.0776,51.7915 C92.4388,51.4381 93.669,50.6922 94.6186,49.6448 C95.5682,48.5973 96.1961,47.2933 96.4261,45.8916 C96.656,44.4898 96.4779,43.0507 95.9136,41.7494 C95.3493,40.4481 94.4231,39.3406 93.2476,38.5619 C92.0721,37.7831 90.698,37.3666 89.2927,37.363 Z M89.2927,49.7171113 C88.3072,49.7171113 87.3438,49.4215 86.5245,48.8677 C85.7053,48.3139 85.0669,47.5268 84.6903,46.606 C84.3136,45.6853 84.2156,44.6722 84.4087,43.6951 C84.6017,42.718 85.0771,41.8208 85.7748,41.117 C86.4724,40.4132 87.3608,39.9345 88.3277,39.7414 C89.2945,39.5483 90.2963,39.6496 91.2061,40.0324 C92.116,40.4152 92.8931,41.0623 93.4391,41.8919 C93.985,42.7214 94.2753,43.696 94.2732113,44.6924 C94.2732113,45.3532 94.1443,46.0075 93.8939,46.6178 C93.6434,47.2281 93.2764,47.7825 92.8138,48.2493 C92.3512,48.716 91.802,49.0859 91.1978,49.3377 C90.5936,49.5896 89.9462,49.7185 89.2927,49.7171113 Z" id="Shape"></path>
            <path d="M71.7799,37.3630994 C70.5967,37.3626 69.4315,37.6554 68.3862,38.2158 C67.341,38.7762 66.4475,39.587 65.784,40.5775 C65.1205,41.5679 64.7073,42.7076 64.5804,43.897 C64.4536,45.0863 64.617,46.2889 65.0564,47.3996 C65.4958,48.5102 66.1978,49.4951 67.1009,50.2678 C68.004,51.0406 69.0807,51.5778 70.2367,51.8324 C71.3928,52.087 72.5929,52.0511 73.7321,51.7281 C74.8713,51.405 75.9147,50.8046 76.7712,49.9793 L76.7712,50.6019 C76.7689,50.7501 76.7964,50.8972 76.8521,51.0343 C76.9079,51.1714 76.9906,51.2955 77.0953,51.3993 C77.2017,51.5068 77.3281,51.592 77.4671,51.6501 C77.6061,51.7082 77.7551,51.738 77.9056,51.7379 C78.0529,51.7388 78.1989,51.7092 78.3345,51.651 C78.4702,51.5928 78.5926,51.5071 78.6942,51.3993 C78.8022,51.2981 78.8871,51.1743 78.9431,51.0366 C78.9991,50.8989 79.0247,50.7506 79.0184,50.6019 L79.0184,44.7471 L79.0184,44.6925 C79.0198,43.7305 78.8336,42.7776 78.4705,41.8885 C78.1073,40.9993 77.5744,40.1912 76.9021,39.5105 C76.2298,38.8297 75.4313,38.2897 74.5524,37.9212 C73.6735,37.5527 72.7314,37.3630994 71.7799,37.3630994 Z M71.7799,49.7171113 C70.7944,49.7171113 69.831,49.4215 69.0117,48.8677 C68.1925,48.3139 67.5541,47.5268 67.1775,46.606 C66.8008,45.6853 66.7028,44.6722 66.8959,43.6951 C67.0889,42.718 67.5643,41.8208 68.262,41.117 C68.9596,40.4132 69.848,39.9345 70.8149,39.7414 C71.7817,39.5484 72.7835,39.6496 73.6933,40.0324 C74.6032,40.4153 75.3803,41.0624 75.9263,41.8919 C76.4722,42.7214 76.7625,43.6961 76.7604113,44.6925 C76.7604113,45.3532 76.6315,46.0075 76.3811,46.6178 C76.1306,47.2282 75.7636,47.7826 75.301,48.2493 C74.8384,48.716 74.2892,49.0859 73.685,49.3378 C73.0808,49.5896 72.4334,49.7185 71.7799,49.7171113 Z" id="Shape"></path>
            <path d="M129.763,37.6689 C129.619,37.6095 129.463,37.5845 129.308,37.5959 C129.152,37.6072 129.001,37.6547 128.867,37.7344 C128.613,37.8622 128.419,38.0859 128.327,38.3571 L126.792,42.7263 L125.95,45.0966 L125.798,45.5335 L124.718,48.6466 C124.623,48.9462 124.436,49.2076 124.185,49.393 C123.933,49.5785 123.63,49.6784 123.319,49.6784 C123.008,49.6784 122.705,49.5785 122.453,49.393 C122.202,49.2076 122.015,48.9462 121.92,48.6466 C121.92,48.4719 121.261,46.7569 120.84,45.5226 L120.688,45.0857 L119.846,42.7154 L118.311,38.3461 C118.216,38.0802 118.028,37.8587 117.782,37.7235 C117.645,37.6465 117.492,37.6008 117.335,37.5894 C117.179,37.5781 117.021,37.6015 116.875,37.658 C116.723,37.7037 116.585,37.785 116.47,37.895 C116.356,38.0051 116.268,38.141 116.216,38.2915 C116.11,38.5542 116.11,38.848 116.216,39.1107 L119.9,49.5205 C120.152,50.2357 120.615,50.8561 121.225,51.299 C121.835,51.7418 122.565,51.986 123.316,51.999 C124.067,52.0121 124.804,51.7934 125.429,51.372 C126.054,50.9506 126.537,50.3467 126.814,49.6406 L130.541,39.1217 C130.646,38.8589 130.646,38.5652 130.541,38.3024 C130.478,38.1374 130.372,37.9921 130.236,37.881 C130.099,37.7699 129.936,37.6968 129.763,37.6689 Z" id="Path"></path>
            <path d="M139.94,37.4067 C138.097,37.6111 136.402,38.5228 135.204,39.9537 C134.007,41.3846 133.397,43.2257 133.503,45.0972 C133.608,46.9688 134.42,48.7282 135.77,50.0126 C137.121,51.2969 138.907,52.0083 140.762,52.0000718 C142.56,52.0052 144.296,51.3268 145.623,50.0994 C145.824,49.9586 145.971,49.7535 146.041,49.5173 C146.112,49.2811 146.101,49.0278 146.011,48.7986 C145.92,48.5694 145.756,48.3778 145.545,48.255 C145.333,48.1322 145.087,48.0855 144.845,48.1223 C144.574,48.1203 144.312,48.2217 144.111,48.4063 C143.467,48.997 142.681,49.4066 141.832,49.5943 C140.983,49.782 140.099,49.7411 139.271,49.4758 C138.442,49.2105 137.696,48.73 137.109,48.0823 C136.521,47.4346 136.112,46.6424 135.921,45.7848 L146.844,45.7848 C147.141,45.7909 147.428,45.6805 147.646,45.4767 C147.863,45.273 147.994,44.9918 148.011014,44.6925 C148.013,43.6591 147.799,42.6369 147.382,41.6933 C146.965,40.7497 146.356,39.906 145.593,39.2177 C144.831,38.5295 143.933,38.0122 142.959,37.7001 C141.984,37.388 140.956,37.288 139.94,37.4067 Z M144.975,43.534615 L136.548,43.534615 C136.474,43.5352 136.4,43.5178 136.334,43.4838 C136.268,43.4498 136.211,43.4002 136.167,43.3392 C136.124,43.2782 136.096,43.2076 136.085,43.1332 C136.074,43.0589 136.081,42.983 136.105,42.912 C136.459,41.9522 137.095,41.1247 137.927,40.5405 C138.759,39.9563 139.748,39.6432 140.762,39.6432 C141.775,39.6432 142.764,39.9563 143.596,40.5405 C144.428,41.1247 145.064,41.9522 145.418,42.912 C145.442,42.983 145.449,43.0589 145.438,43.1332 C145.428,43.2076 145.399,43.2782 145.356,43.3392 C145.312,43.4002 145.255,43.4498 145.189,43.4838 C145.123,43.5178 145.049,43.5352 144.975,43.534615 Z" id="Shape"></path>
        </g>
        <g id="Group2" fill="#6757ff" fill-rule="nonzero">
            <path d="M53.1875,7.07278 C51.2924,4.76556 48.8237,3.01026 46.0352,1.987319 C43.2467,0.9643805 40.2391,0.710716 37.3216,1.252402 C34.404,1.794088 31.6818,3.11158 29.4347,5.06944 C27.1877,7.02729 25.4968,9.55487 24.5361,12.3923 C24.3545,12.907 24.3702,13.4718 24.5802,13.9753 C24.7902,14.4788 25.1792,14.8844 25.6705,15.1122 C25.9468,15.2336 26.2448,15.2967 26.5461,15.2977 C26.8474,15.2986 27.1457,15.2374 27.4228,15.1178 C27.6999,14.9982 27.95,14.8226 28.1577,14.6019 C28.3654,14.3812 28.5263,14.12 28.6307,13.8342 C29.5862,11.018 31.5009,8.63703 34.0326,7.11647 C35.9271,5.97308 38.0923,5.36918 40.2987,5.36877 C42.9177,5.35881 45.4722,6.18949 47.5943,7.74118 C49.7165,9.29287 51.2968,11.4855 52.1077,14.0033 C52.9185,16.5211 52.9181,19.2341 52.1065,21.7517 C51.2948,24.2692 49.7138,26.4613 47.5912,28.0124 C45.4911,29.5658 42.9549,30.4001 40.3527,30.3936 C38.3929,30.3922 36.4612,29.9224 34.7151,29.0226 C32.969,28.1228 31.458,26.8185 30.3053,25.2161 L29.6679,24.3968 C28.0956,22.4603 26.1162,20.9025 23.8735,19.8368 C21.6308,18.7711 19.1814,18.2243 16.7034,18.2362 C13.2971,18.2808 9.98339,19.3641 7.19601,21.3442 C4.40864,23.3243 2.27742,26.1091 1.08125,29.3341 C-0.344327,33.1497 -0.301919,37.3673 1.20009,41.1529 C2.11621,43.5726 3.5704,45.7469 5.45024,47.5077 C7.33009,49.2686 9.58523,50.5688 12.0414,51.3078 C14.4975,52.0469 17.0888,52.205 19.6151,51.77 C22.1413,51.335 24.5347,50.3185 26.6104,48.7991 C28.2073,47.6346 29.5864,46.1921 30.6834,44.539 C30.839,44.3041 30.946,44.0398 30.998,43.762 C31.05,43.4842 31.0459,43.1986 30.9859,42.9224 C30.9303,42.636 30.8185,42.3637 30.657,42.1217 C30.4956,41.8797 30.2878,41.6728 30.046,41.5133 C29.5476,41.2222 28.9588,41.1325 28.3977,41.2622 C27.8366,41.3918 27.3447,41.7313 27.021,42.2124 C26.0124,43.6932 24.7007,44.9375 23.1748,45.8607 C21.2632,47.0222 19.0742,47.6341 16.8439,47.6303 C13.9264,47.6327 11.1017,46.5943 8.86708,44.698 C6.63245,42.8017 5.13123,40.169 4.62776,37.2636 C4.12429,34.3582 4.65086,31.3664 6.11474,28.8149 C7.57862,26.2634 9.88594,24.316 12.6304,23.3154 C13.963,22.8065 15.3762,22.5474 16.8006,22.5508 C18.7633,22.5603 20.6958,23.0392 22.4403,23.9486 C24.1847,24.858 25.6914,26.1719 26.8373,27.783 L27.4747,28.6022 C30.1755,31.9199 34.0256,34.0719 38.2409,34.6198 C42.4561,35.1678 46.7195,34.0705 50.1625,31.5515 C50.3786,31.3985 50.5838,31.2347 50.7891,31.0709 C50.9673,30.9231 51.1835,30.8299 51.4123,30.8022 C51.6411,30.7745 51.873,30.8134 52.0807,30.9144 C52.2883,31.0154 52.4632,31.1742 52.5846,31.3722 C52.706,31.5702 52.769,31.7991 52.7662,32.0321 L52.7662,32.611 C52.7428,33.1426 52.9121,33.6644 53.2423,34.0787 C53.5725,34.493 54.0409,34.7712 54.5596,34.8612 C54.8934,34.9122 55.2344,34.8835 55.5552,34.7772 C55.876,34.671 56.1678,34.4903 56.407,34.2495 C56.6099,34.0428 56.7698,33.7971 56.8774,33.527 C56.9851,33.2569 57.0382,32.9677 57.0339639,32.6765 L57.0339639,16.6305 C56.7772,13.115 55.4314,9.77071 53.1875,7.07278 Z" id="Path"></path>
        </g>
    </g>
</svg>